<svg width="33" height="23" viewBox="0 0 33 23" fill="none" xmlns="http://www.w3.org/2000/svg">
<path d="M1.99614 22.5625C1.48442 22.5625 0.976638 22.3633 0.585938 21.9726C-0.195312 21.1914 -0.195312 19.9218 0.585938 19.1445L8.52734 11.2031L0.738237 3.41404C-0.0430126 2.63279 -0.0430126 1.36324 0.738237 0.585938C1.51949 -0.195312 2.78904 -0.195312 3.56634 0.585938L12.7655 9.78514C13.5468 10.5664 13.5468 11.8359 12.7655 12.6132L3.41394 21.9648C3.02332 22.3555 2.5155 22.5547 2.00374 22.5547L1.99614 22.5625Z" fill="#58D033"/>
<path d="M30.199 22.5625H16C14.8984 22.5625 14 21.6641 14 20.5625C14 19.4609 14.8984 18.5625 16 18.5625H30.199C31.3006 18.5625 32.199 19.4609 32.199 20.5625C32.199 21.6641 31.3006 22.5625 30.199 22.5625Z" fill="#58D033"/>
</svg>
