<svg width="913" height="911" viewBox="0 0 913 911" fill="none" xmlns="http://www.w3.org/2000/svg">
<path d="M457.547 456.432V456.432C457.547 286.88 594.996 147.432 764.547 147.432V147.432" stroke="#D9D9D9" stroke-width="40" stroke-linecap="round"/>
<path d="M456.605 457.263V457.263C574.426 335.338 770.169 330.573 892.095 448.395V448.395" stroke="#D9D9D9" stroke-width="40" stroke-linecap="round"/>
<path d="M454.547 454.932V454.932C454.547 624.483 317.099 763.932 147.547 763.932V763.932" stroke="#D9D9D9" stroke-width="40" stroke-linecap="round"/>
<path d="M455.49 454.1V454.1C337.668 576.025 141.925 580.79 20 462.969V462.969" stroke="#D9D9D9" stroke-width="40" stroke-linecap="round"/>
<path d="M456.547 454.932V454.932C286.996 454.932 147.547 317.483 147.547 147.932V147.932" stroke="#D9D9D9" stroke-width="40" stroke-linecap="round"/>
<path d="M456.928 455.49V455.49C335.003 337.668 330.238 141.925 448.059 20V20" stroke="#D9D9D9" stroke-width="40" stroke-linecap="round"/>
<path d="M455.547 454.932V454.932C625.099 454.932 764.547 592.38 764.547 761.932V761.932" stroke="#D9D9D9" stroke-width="40" stroke-linecap="round"/>
<path d="M456.209 454.795V454.795C578.134 572.616 582.899 768.359 465.078 890.285V890.285" stroke="#D9D9D9" stroke-width="40" stroke-linecap="round"/>
</svg>
