<svg width="37" height="65" viewBox="0 0 37 65" fill="none" xmlns="http://www.w3.org/2000/svg">
<path fill-rule="evenodd" clip-rule="evenodd" d="M18.5043 0H18.6058C22.305 0 25.305 3.6992 25.305 6.6992V30.6992C25.305 34.3984 22.305 37.3984 18.6058 37.3984H18.5043C14.8051 37.3984 11.8051 33.6992 11.8051 30.6992V6.6992C11.8051 3 14.8051 0 18.5043 0Z" fill="black"/>
<path d="M35.0042 18.699C35.0042 18.199 35.4026 17.699 36.0042 17.699C36.5042 17.699 37.0042 18.199 37.0042 18.699V31.301C37.0042 36.4026 34.9026 41.0002 31.5042 44.403C28.4026 47.5046 24.2034 49.5046 19.5042 49.8014V62.6024L25.9026 62.5008C26.4026 62.5008 26.9026 63.0008 26.9026 63.5008C26.9026 64.1024 26.4026 64.5008 25.9026 64.5008L11.1016 64.6024C10.6016 64.6024 10.2032 64.1024 10.2032 63.6024C10.2032 63.0008 10.6016 62.6024 11.1016 62.6024H17.5V49.8014C12.8008 49.5006 8.6016 47.5006 5.5 44.403C2.1016 41.0046 0 36.403 0 31.301V18.699C0 18.199 0.5 17.699 1 17.699C1.60156 17.699 2 18.199 2 18.699V31.301C2 35.9026 3.8984 40.0002 6.8984 43C9.8984 45.8984 14 47.8008 18.5004 47.8008C23.0008 47.8008 27.102 45.9024 30.1024 43C33.1024 40 35.0008 35.8984 35.0008 31.301V18.699H35.0042Z" fill="black"/>
</svg>
