<svg width="49" height="40" viewBox="0 0 49 40" fill="none" xmlns="http://www.w3.org/2000/svg">
<path fill-rule="evenodd" clip-rule="evenodd" d="M26.0423 1.95794C28.2062 0.712129 30.7135 0 33.3856 0C41.5234 0 48.1309 6.6075 48.1309 14.7453C48.1309 18.8143 46.479 22.5005 43.8108 25.1709L46.3456 27.7057C46.6458 28.0058 46.734 28.4551 46.5712 28.8455C46.4103 29.2359 46.0278 29.491 45.604 29.491H36.8067C38.0859 26.8424 38.802 23.8704 38.802 20.7329C38.802 12.2123 33.5128 4.91826 26.04 1.95754L26.0423 1.95794Z" fill="#58D033"/>
<path fill-rule="evenodd" clip-rule="evenodd" d="M18.6181 39.3514C8.34375 39.3514 0 31.0096 0 20.7332C0 10.4569 8.34174 2.11511 18.6181 2.11511C28.8925 2.11511 37.2363 10.4569 37.2363 20.7332C37.2363 25.8712 35.1508 30.525 31.7804 33.8955C31.7804 33.8955 33.858 35.9731 35.4491 37.5642C35.7493 37.8644 35.8376 38.3137 35.6747 38.7041C35.5139 39.0945 35.1313 39.3496 34.7075 39.3496H18.6162L18.6181 39.3514ZM9.12675 17.8097C10.659 17.8097 11.9008 19.0535 11.9008 20.5838C11.9008 22.116 10.657 23.3579 9.12675 23.3579C7.59451 23.3579 6.35266 22.114 6.35266 20.5838C6.35266 19.0515 7.59652 17.8097 9.12675 17.8097ZM18.6417 17.8097C20.174 17.8097 21.4158 19.0535 21.4158 20.5838C21.4158 22.116 20.172 23.3579 18.6417 23.3579C17.1095 23.3579 15.8676 22.114 15.8676 20.5838C15.8676 19.0515 17.1115 17.8097 18.6417 17.8097ZM28.1115 17.8097C29.6438 17.8097 30.8856 19.0535 30.8856 20.5838C30.8856 22.116 29.6417 23.3579 28.1115 23.3579C26.5793 23.3579 25.3374 22.114 25.3374 20.5838C25.3374 19.0515 26.5813 17.8097 28.1115 17.8097Z" fill="#58D033"/>
</svg>
